<svg width="36" height="36" viewBox="0 0 36 36" fill="none" xmlns="http://www.w3.org/2000/svg">
<path d="M21.1801 4.80099H20.6801V4.82593L20.6826 4.85074L21.1801 4.80099ZM21.1801 4.80097H21.6801V4.77603L21.6776 4.75122L21.1801 4.80097ZM21.2539 5.53891L21.7514 5.48915L21.7514 5.48915L21.2539 5.53891ZM22.0517 8.2182L22.2431 7.75626L22.2431 7.75626L22.0517 8.2182ZM24.5104 6.88781L24.8271 7.27479L24.8271 7.27479L24.5104 6.88781ZM25.0844 6.41823L24.7678 6.03125L24.7678 6.03125L25.0844 6.41823ZM27.7651 6.55193L27.4115 6.90548L27.4115 6.90549L27.7651 6.55193ZM29.448 8.23488L29.8016 7.88133L29.8016 7.88133L29.448 8.23488ZM30.3796 9.5321L30.879 9.50719L30.879 9.50719L30.3796 9.5321ZM29.5817 10.9156L29.1947 10.599L29.1947 10.599L29.5817 10.9156ZM29.1121 11.4895L29.4991 11.8062L29.4991 11.8062L29.1121 11.4895ZM27.7817 13.9483L27.3198 14.1396L27.3198 14.1396L27.7817 13.9483ZM30.461 14.7461L30.4113 15.2436L30.4113 15.2436L30.461 14.7461ZM31.199 14.8199L31.2488 14.3224L31.2488 14.3224L31.199 14.8199ZM32.7415 15.234L33.1122 14.8985L33.1122 14.8985L32.7415 15.234ZM32.7415 20.766L33.1122 21.1015L33.1122 21.1015L32.7415 20.766ZM31.199 21.1801V21.6801H31.224L31.2488 21.6776L31.199 21.1801ZM31.199 21.1801V20.6801H31.1741L31.1493 20.6826L31.199 21.1801ZM30.4616 21.2538L30.4118 20.7563L30.4118 20.7563L30.4616 21.2538ZM29.1127 24.5104L29.4996 24.1938L29.4996 24.1938L29.1127 24.5104ZM29.5818 25.0838L29.1948 25.4004L29.1948 25.4004L29.5818 25.0838ZM30.3797 26.4672L30.879 26.4921L30.879 26.4921L30.3797 26.4672ZM25.0844 29.5811L25.4011 29.1941L25.4011 29.1941L25.0844 29.5811ZM24.5105 29.1115L24.1939 29.4985L24.1939 29.4985L24.5105 29.1115ZM21.254 30.4604L20.7564 30.4107L20.7564 30.4107L21.254 30.4604ZM21.1801 31.199L20.6826 31.1493L20.6801 31.1741V31.199H21.1801ZM21.1801 31.199L21.6776 31.2488L21.6801 31.224V31.199H21.1801ZM20.766 32.7415L21.1015 33.1122L21.1015 33.1122L20.766 32.7415ZM15.234 32.7415L14.8985 33.1122L14.8985 33.1122L15.234 32.7415ZM14.8199 31.199L14.3224 31.2488L14.3224 31.2488L14.8199 31.199ZM14.7461 30.461L14.2486 30.5108L14.2486 30.5108L14.7461 30.461ZM13.9483 27.7817L14.1396 27.3198L14.1396 27.3198L13.9483 27.7817ZM11.4896 29.1121L11.8062 29.4991L11.8062 29.4991L11.4896 29.1121ZM10.9155 29.5818L10.5989 29.1948L10.5989 29.1948L10.9155 29.5818ZM9.53203 30.3797L9.50712 30.879L9.50712 30.879L9.53203 30.3797ZM8.23481 29.4481L8.58837 29.0945L8.58837 29.0945L8.23481 29.4481ZM6.55186 27.7651L6.90542 27.4116L6.90542 27.4116L6.55186 27.7651ZM6.41816 25.0844L6.80514 25.4011L6.80514 25.4011L6.41816 25.0844ZM6.8878 24.5104L6.50082 24.1938L6.50082 24.1938L6.8878 24.5104ZM5.5389 21.2539L5.58865 20.7564L5.58865 20.7564L5.5389 21.2539ZM4.80099 21.1801L4.85074 20.6826L4.82593 20.6801H4.80099V21.1801ZM4.80097 21.1801L4.75122 21.6776L4.77603 21.6801H4.80097V21.1801ZM3.25855 20.766L3.62927 20.4305L3.62927 20.4305L3.25855 20.766ZM3.25855 15.234L2.88782 14.8985L2.88782 14.8985L3.25855 15.234ZM4.80099 14.8199L4.75124 14.3224L4.75124 14.3224L4.80099 14.8199ZM5.53946 14.7461L5.48971 14.2485L5.48971 14.2485L5.53946 14.7461ZM6.88837 11.4895L7.27535 11.1729L6.88837 11.4895ZM6.41823 10.9149L6.03125 11.2315L6.03125 11.2315L6.41823 10.9149ZM8.23488 6.55125L7.88133 6.1977L7.88133 6.1977L8.23488 6.55125ZM10.9156 6.41755L10.599 6.80453L10.599 6.80453L10.9156 6.41755ZM11.4896 6.88723L11.8062 6.50025L11.8062 6.50025L11.4896 6.88723ZM14.7462 5.53832L15.2437 5.58807L15.2437 5.58807L14.7462 5.53832ZM14.8199 4.80099L14.3224 4.75124L14.3224 4.75124L14.8199 4.80099ZM15.234 3.25855L14.8985 2.88782L14.8985 2.88782L15.234 3.25855ZM20.766 3.25855L20.4305 3.62927L20.4305 3.62927L20.766 3.25855ZM21.6801 4.80099V4.80097H20.6801V4.80099H21.6801ZM21.7514 5.48915L21.6776 4.75124L20.6826 4.85074L20.7564 5.58866L21.7514 5.48915ZM22.2431 7.75626C22.1918 7.73502 22.0902 7.67511 21.9917 7.28327C21.8929 6.89073 21.8348 6.32282 21.7514 5.48915L20.7564 5.58866C20.8364 6.38852 20.9007 7.04578 21.0219 7.52725C21.1432 8.00942 21.3588 8.47239 21.8604 8.68014L22.2431 7.75626ZM24.1938 6.50084C23.5454 7.03138 23.1027 7.39185 22.7553 7.59959C22.4085 7.80695 22.2943 7.77749 22.2431 7.75626L21.8604 8.68014C22.362 8.88789 22.8418 8.71302 23.2685 8.45784C23.6946 8.20304 24.2049 7.78382 24.8271 7.27479L24.1938 6.50084ZM24.7678 6.03125L24.1938 6.50084L24.8271 7.27479L25.401 6.80521L24.7678 6.03125ZM26.4928 5.12098C26.1592 5.10434 25.8772 5.22122 25.6169 5.38355C25.3687 5.53833 25.0903 5.76736 24.7678 6.03125L25.401 6.80521C25.7442 6.52439 25.9651 6.34489 26.146 6.23211C26.3148 6.12688 26.3917 6.11718 26.4429 6.11974L26.4928 5.12098ZM28.1186 6.19838C27.8239 5.9037 27.5697 5.64811 27.3381 5.4694C27.0952 5.28197 26.8263 5.13762 26.4928 5.12098L26.4429 6.11974C26.4942 6.12229 26.5698 6.1396 26.7272 6.26109C26.896 6.39131 27.0979 6.59191 27.4115 6.90548L28.1186 6.19838ZM29.8016 7.88133L28.1186 6.19838L27.4115 6.90549L29.0945 8.58843L29.8016 7.88133ZM30.879 9.50719C30.8623 9.1736 30.718 8.9047 30.5305 8.66181C30.3518 8.43022 30.0962 8.176 29.8016 7.88133L29.0945 8.58843C29.408 8.90201 29.6086 9.10398 29.7389 9.27273C29.8604 9.43018 29.8777 9.50576 29.8802 9.55701L30.879 9.50719ZM29.9687 11.2322C30.2326 10.9097 30.4616 10.6313 30.6164 10.383C30.7787 10.1227 30.8956 9.84078 30.879 9.50719L29.8802 9.557C29.8828 9.60825 29.8731 9.68517 29.7678 9.85393C29.6551 10.0348 29.4756 10.2557 29.1947 10.599L29.9687 11.2322ZM29.4991 11.8062L29.9687 11.2322L29.1947 10.599L28.7251 11.1729L29.4991 11.8062ZM28.2437 13.7569C28.2224 13.7057 28.193 13.5915 28.4003 13.2447C28.6081 12.8973 28.9685 12.4546 29.4991 11.8062L28.7251 11.1729C28.2161 11.7951 27.7969 12.3054 27.5421 12.7315C27.2869 13.1582 27.112 13.638 27.3198 14.1396L28.2437 13.7569ZM30.5108 14.2486C29.6771 14.1652 29.1092 14.1071 28.7166 14.0083C28.3248 13.9098 28.2649 13.8082 28.2437 13.7569L27.3198 14.1396C27.5275 14.6412 27.9905 14.8568 28.4727 14.9781C28.9541 15.0992 29.6114 15.1636 30.4113 15.2436L30.5108 14.2486ZM31.2488 14.3224L30.5108 14.2486L30.4113 15.2436L31.1493 15.3174L31.2488 14.3224ZM33.1122 14.8985C32.8881 14.6508 32.6061 14.5341 32.3072 14.4648C32.0222 14.3988 31.6634 14.3638 31.2488 14.3224L31.1493 15.3174C31.5905 15.3615 31.8737 15.3908 32.0813 15.439C32.275 15.4839 32.3363 15.5314 32.3707 15.5695L33.1122 14.8985ZM33.5 16.81C33.5 16.3932 33.501 16.0327 33.4636 15.7426C33.4244 15.4383 33.3363 15.1461 33.1122 14.8985L32.3707 15.5695C32.4052 15.6075 32.4464 15.6732 32.4718 15.8704C32.499 16.0819 32.5 16.3665 32.5 16.81H33.5ZM33.5 19.19V16.81H32.5V19.19H33.5ZM33.1122 21.1015C33.3363 20.8539 33.4244 20.5617 33.4636 20.2574C33.501 19.9673 33.5 19.6068 33.5 19.19H32.5C32.5 19.6335 32.499 19.9182 32.4718 20.1296C32.4464 20.3268 32.4052 20.3925 32.3707 20.4305L33.1122 21.1015ZM31.2488 21.6776C31.6634 21.6362 32.0222 21.6012 32.3072 21.5352C32.6061 21.4659 32.8881 21.3492 33.1122 21.1015L32.3707 20.4305C32.3363 20.4686 32.275 20.5161 32.0813 20.561C31.8737 20.6092 31.5905 20.6385 31.1493 20.6826L31.2488 21.6776ZM31.199 21.6801H31.199V20.6801H31.199V21.6801ZM30.5113 21.7514L31.2488 21.6776L31.1493 20.6826L30.4118 20.7563L30.5113 21.7514ZM28.2442 22.243C28.2655 22.1918 28.3254 22.0902 28.7172 21.9916C29.1097 21.8929 29.6777 21.8347 30.5113 21.7514L30.4118 20.7563C29.612 20.8363 28.9547 20.9007 28.4732 21.0218C27.9911 21.1431 27.5281 21.3588 27.3203 21.8603L28.2442 22.243ZM29.4996 24.1938C28.9691 23.5453 28.6086 23.1027 28.4009 22.7553C28.1935 22.4085 28.223 22.2943 28.2442 22.243L27.3203 21.8603C27.1126 22.3619 27.2875 22.8418 27.5426 23.2685C27.7974 23.6946 28.2167 24.2049 28.7257 24.827L29.4996 24.1938ZM29.9688 24.7671L29.4996 24.1938L28.7257 24.827L29.1948 25.4004L29.9688 24.7671ZM30.879 26.4921C30.8957 26.1586 30.7788 25.8766 30.6165 25.6163C30.4617 25.3681 30.2327 25.0897 29.9688 24.7671L29.1948 25.4004C29.4756 25.7436 29.6551 25.9645 29.7679 26.1454C29.8731 26.3142 29.8828 26.3911 29.8803 26.4423L30.879 26.4921ZM29.8016 28.118C30.0963 27.8233 30.3519 27.5691 30.5306 27.3375C30.718 27.0946 30.8624 26.8257 30.879 26.4921L29.8803 26.4423C29.8777 26.4936 29.8604 26.5692 29.7389 26.7266C29.6087 26.8954 29.4081 27.0973 29.0945 27.4109L29.8016 28.118ZM28.1187 29.801L29.8016 28.118L29.0945 27.4109L27.4116 29.0939L28.1187 29.801ZM26.4928 30.8784C26.8264 30.8617 27.0953 30.7174 27.3382 30.5299C27.5698 30.3512 27.824 30.0956 28.1187 29.801L27.4116 29.0939C27.098 29.4074 26.896 29.608 26.7273 29.7382C26.5698 29.8597 26.4943 29.877 26.443 29.8796L26.4928 30.8784ZM24.7678 29.9681C25.0904 30.232 25.3688 30.461 25.617 30.6158C25.8773 30.7781 26.1592 30.895 26.4928 30.8784L26.443 29.8796C26.3918 29.8822 26.3148 29.8725 26.1461 29.7672C25.9652 29.6545 25.7443 29.4749 25.4011 29.1941L24.7678 29.9681ZM24.1939 29.4985L24.7678 29.9681L25.4011 29.1941L24.8271 28.7245L24.1939 29.4985ZM22.2431 28.2431C22.2944 28.2218 22.4086 28.1924 22.7554 28.3997C23.1028 28.6075 23.5454 28.968 24.1939 29.4985L24.8271 28.7245C24.205 28.2155 23.6947 27.7963 23.2686 27.5415C22.8419 27.2863 22.362 27.1114 21.8605 27.3192L22.2431 28.2431ZM21.7515 30.5102C21.8348 29.6765 21.893 29.1086 21.9917 28.7161C22.0903 28.3242 22.1919 28.2643 22.2431 28.2431L21.8605 27.3192C21.3589 27.5269 21.1432 27.9899 21.0219 28.4721C20.9008 28.9536 20.8364 29.6108 20.7564 30.4107L21.7515 30.5102ZM21.6776 31.2488L21.7515 30.5102L20.7564 30.4107L20.6826 31.1493L21.6776 31.2488ZM21.6801 31.199V31.199H20.6801V31.199H21.6801ZM21.1015 33.1122C21.3492 32.8881 21.4659 32.6061 21.5352 32.3072C21.6012 32.0222 21.6362 31.6634 21.6776 31.2488L20.6826 31.1493C20.6385 31.5905 20.6092 31.8737 20.561 32.0813C20.5161 32.275 20.4686 32.3363 20.4305 32.3707L21.1015 33.1122ZM19.19 33.5C19.6068 33.5 19.9673 33.501 20.2574 33.4636C20.5617 33.4244 20.8539 33.3363 21.1015 33.1122L20.4305 32.3707C20.3925 32.4052 20.3268 32.4464 20.1296 32.4718C19.9182 32.499 19.6335 32.5 19.19 32.5V33.5ZM16.81 33.5H19.19V32.5H16.81V33.5ZM14.8985 33.1122C15.1461 33.3363 15.4383 33.4244 15.7426 33.4636C16.0327 33.501 16.3932 33.5 16.81 33.5V32.5C16.3665 32.5 16.0819 32.499 15.8704 32.4718C15.6732 32.4464 15.6075 32.4052 15.5695 32.3707L14.8985 33.1122ZM14.3224 31.2488C14.3638 31.6634 14.3988 32.0222 14.4648 32.3072C14.5341 32.6061 14.6508 32.8881 14.8985 33.1122L15.5695 32.3707C15.5314 32.3363 15.4839 32.275 15.439 32.0813C15.3908 31.8737 15.3615 31.5905 15.3174 31.1493L14.3224 31.2488ZM14.2486 30.5108L14.3224 31.2488L15.3174 31.1493L15.2436 30.4113L14.2486 30.5108ZM13.7569 28.2437C13.8082 28.2649 13.9098 28.3248 14.0083 28.7166C14.1071 29.1092 14.1652 29.6771 14.2486 30.5108L15.2436 30.4113C15.1636 29.6114 15.0992 28.9541 14.9781 28.4727C14.8568 27.9905 14.6412 27.5275 14.1396 27.3198L13.7569 28.2437ZM11.8062 29.4991C12.4546 28.9685 12.8973 28.6081 13.2447 28.4003C13.5915 28.193 13.7057 28.2224 13.7569 28.2437L14.1396 27.3198C13.638 27.112 13.1582 27.2869 12.7315 27.5421C12.3054 27.7969 11.7951 28.2161 11.1729 28.7251L11.8062 29.4991ZM11.2321 29.9688L11.8062 29.4991L11.1729 28.7251L10.5989 29.1948L11.2321 29.9688ZM9.50712 30.879C9.84071 30.8957 10.1226 30.7788 10.383 30.6165C10.6312 30.4617 10.9096 30.2327 11.2321 29.9688L10.5989 29.1948C10.2557 29.4756 10.0347 29.6551 9.85386 29.7679C9.68511 29.8731 9.60818 29.8828 9.55694 29.8803L9.50712 30.879ZM7.88126 29.8016C8.17593 30.0963 8.43015 30.3519 8.66174 30.5306C8.90463 30.718 9.17353 30.8624 9.50712 30.879L9.55694 29.8803C9.50569 29.8777 9.43011 29.8604 9.27266 29.7389C9.10391 29.6087 8.90195 29.4081 8.58837 29.0945L7.88126 29.8016ZM6.19831 28.1187L7.88126 29.8016L8.58837 29.0945L6.90542 27.4116L6.19831 28.1187ZM5.12091 26.4928C5.13755 26.8264 5.2819 27.0953 5.46933 27.3382C5.64804 27.5698 5.90364 27.824 6.19831 28.1187L6.90542 27.4116C6.59184 27.098 6.39124 26.896 6.26102 26.7273C6.13953 26.5698 6.12222 26.4943 6.11967 26.443L5.12091 26.4928ZM6.03118 24.7678C5.76729 25.0904 5.53826 25.3688 5.38349 25.617C5.22116 25.8773 5.10427 26.1592 5.12091 26.4928L6.11967 26.443C6.11711 26.3918 6.12681 26.3148 6.23204 26.1461C6.34482 25.9652 6.52432 25.7443 6.80514 25.4011L6.03118 24.7678ZM6.50082 24.1938L6.03118 24.7678L6.80514 25.4011L7.27478 24.8271L6.50082 24.1938ZM7.75625 22.2431C7.77748 22.2943 7.80694 22.4085 7.59958 22.7553C7.39184 23.1027 7.03137 23.5454 6.50082 24.1938L7.27478 24.8271C7.78381 24.2049 8.20303 23.6946 8.45783 23.2685C8.71301 22.8418 8.88788 22.3619 8.68013 21.8604L7.75625 22.2431ZM5.48915 21.7514C6.32282 21.8348 6.89072 21.8929 7.28326 21.9917C7.6751 22.0902 7.73501 22.1918 7.75625 22.2431L8.68013 21.8604C8.47237 21.3588 8.00941 21.1432 7.52724 21.0219C7.04577 20.9007 6.38852 20.8364 5.58865 20.7564L5.48915 21.7514ZM4.75124 21.6776L5.48915 21.7514L5.58865 20.7564L4.85074 20.6826L4.75124 21.6776ZM4.80097 21.6801H4.80099V20.6801H4.80097V21.6801ZM2.88782 21.1015C3.11194 21.3492 3.39394 21.4659 3.69281 21.5352C3.97776 21.6012 4.33656 21.6361 4.75122 21.6776L4.85073 20.6826C4.40947 20.6385 4.12632 20.6092 3.91869 20.561C3.72495 20.5161 3.6637 20.4686 3.62927 20.4305L2.88782 21.1015ZM2.5 19.19C2.5 19.6068 2.49903 19.9672 2.53642 20.2574C2.57564 20.5617 2.6637 20.8539 2.88782 21.1015L3.62927 20.4305C3.59484 20.3925 3.55364 20.3268 3.52822 20.1295C3.50097 19.9181 3.5 19.6335 3.5 19.19H2.5ZM2.5 16.81V19.19H3.5V16.81H2.5ZM2.88782 14.8985C2.6637 15.1461 2.57564 15.4383 2.53642 15.7426C2.49903 16.0327 2.5 16.3932 2.5 16.81H3.5C3.5 16.3665 3.50097 16.0818 3.52822 15.8704C3.55364 15.6732 3.59484 15.6075 3.62927 15.5695L2.88782 14.8985ZM4.75124 14.3224C4.33658 14.3638 3.97777 14.3988 3.69281 14.4648C3.39395 14.5341 3.11194 14.6508 2.88782 14.8985L3.62927 15.5695C3.6637 15.5314 3.72495 15.4839 3.91869 15.439C4.12633 15.3908 4.40948 15.3615 4.85074 15.3174L4.75124 14.3224ZM5.48971 14.2485L4.75124 14.3224L4.85074 15.3174L5.58921 15.2436L5.48971 14.2485ZM7.75681 13.7569C7.73558 13.8081 7.67566 13.9097 7.28383 14.0083C6.89128 14.107 6.32338 14.1652 5.48971 14.2485L5.58921 15.2436C6.38908 15.1636 7.04633 15.0992 7.5278 14.9781C8.00998 14.8568 8.47294 14.6411 8.68069 14.1395L7.75681 13.7569ZM6.50139 11.8061C7.03193 12.4546 7.3924 12.8972 7.60014 13.2446C7.80751 13.5914 7.77804 13.7056 7.75681 13.7569L8.68069 14.1395C8.88844 13.638 8.71357 13.1581 8.4584 12.7314C8.2036 12.3053 7.78438 11.795 7.27535 11.1729L6.50139 11.8061ZM6.03125 11.2315L6.50139 11.8061L7.27535 11.1729L6.80521 10.5983L6.03125 11.2315ZM5.12098 9.50651C5.10434 9.8401 5.22122 10.122 5.38355 10.3824C5.53833 10.6306 5.76736 10.909 6.03125 11.2315L6.80521 10.5983C6.52439 10.255 6.34489 10.0341 6.23211 9.85325C6.12688 9.68449 6.11718 9.60757 6.11974 9.55632L5.12098 9.50651ZM6.19838 7.88065C5.9037 8.17532 5.64811 8.42954 5.4694 8.66113C5.28197 8.90402 5.13762 9.17292 5.12098 9.50651L6.11974 9.55632C6.12229 9.50508 6.1396 9.4295 6.26109 9.27205C6.39131 9.1033 6.59191 8.90133 6.90549 8.58775L6.19838 7.88065ZM7.88133 6.1977L6.19838 7.88065L6.90549 8.58775L8.58843 6.90481L7.88133 6.1977ZM9.50719 5.1203C9.1736 5.13694 8.9047 5.28129 8.66181 5.46872C8.43022 5.64743 8.176 5.90302 7.88133 6.1977L8.58843 6.90481C8.90201 6.59123 9.10398 6.39063 9.27273 6.26041C9.43018 6.13892 9.50576 6.12161 9.557 6.11906L9.50719 5.1203ZM11.2322 6.03057C10.9097 5.76668 10.6313 5.53765 10.383 5.38287C10.1227 5.22054 9.84078 5.10366 9.50719 5.1203L9.557 6.11906C9.60825 6.1165 9.68518 6.1262 9.85393 6.23143C10.0348 6.34421 10.2557 6.52371 10.599 6.80453L11.2322 6.03057ZM11.8062 6.50025L11.2322 6.03057L10.599 6.80453L11.173 7.27421L11.8062 6.50025ZM13.757 7.75567C13.7057 7.7769 13.5915 7.80637 13.2447 7.599C12.8973 7.39126 12.4547 7.03079 11.8062 6.50025L11.173 7.27421C11.7951 7.78324 12.3054 8.20245 12.7315 8.45725C13.1582 8.71243 13.6381 8.8873 14.1397 8.67955L13.757 7.75567ZM14.2486 5.48857C14.1653 6.32224 14.1072 6.89014 14.0084 7.28268C13.9098 7.67452 13.8082 7.73444 13.757 7.75567L14.1397 8.67955C14.6412 8.4718 14.8569 8.00883 14.9782 7.52666C15.0993 7.04519 15.1637 6.38794 15.2437 5.58807L14.2486 5.48857ZM14.3224 4.75124L14.2486 5.48857L15.2437 5.58807L15.3174 4.85074L14.3224 4.75124ZM14.8985 2.88782C14.6508 3.11194 14.5341 3.39394 14.4648 3.69281C14.3988 3.97777 14.3638 4.33658 14.3224 4.75124L15.3174 4.85074C15.3615 4.40948 15.3908 4.12633 15.439 3.91869C15.4839 3.72495 15.5314 3.6637 15.5695 3.62927L14.8985 2.88782ZM16.81 2.5C16.3932 2.5 16.0327 2.49903 15.7426 2.53642C15.4383 2.57564 15.1461 2.6637 14.8985 2.88782L15.5695 3.62927C15.6075 3.59484 15.6732 3.55364 15.8704 3.52822C16.0819 3.50097 16.3665 3.5 16.81 3.5V2.5ZM19.19 2.5H16.81V3.5H19.19V2.5ZM21.1015 2.88782C20.8539 2.6637 20.5617 2.57564 20.2574 2.53642C19.9673 2.49903 19.6068 2.5 19.19 2.5V3.5C19.6335 3.5 19.9182 3.50097 20.1296 3.52822C20.3268 3.55364 20.3925 3.59484 20.4305 3.62927L21.1015 2.88782ZM21.6776 4.75122C21.6362 4.33656 21.6012 3.97776 21.5352 3.69281C21.4659 3.39394 21.3492 3.11194 21.1015 2.88782L20.4305 3.62927C20.4686 3.6637 20.5161 3.72495 20.561 3.91869C20.6092 4.12632 20.6385 4.40947 20.6826 4.85073L21.6776 4.75122ZM23.5 18C23.5 21.0376 21.0376 23.5 18 23.5V24.5C21.5899 24.5 24.5 21.5899 24.5 18H23.5ZM18 12.5C21.0376 12.5 23.5 14.9624 23.5 18H24.5C24.5 14.4101 21.5899 11.5 18 11.5V12.5ZM12.5 18C12.5 14.9624 14.9624 12.5 18 12.5V11.5C14.4101 11.5 11.5 14.4101 11.5 18H12.5ZM18 23.5C14.9624 23.5 12.5 21.0376 12.5 18H11.5C11.5 21.5899 14.4101 24.5 18 24.5V23.5Z" fill="black"/>
</svg>
