<svg width="24" height="24" viewBox="0 0 24 24" fill="none" xmlns="http://www.w3.org/2000/svg">
<g clip-path="url(#clip0_28_412)">
<path d="M17 20H2.5C1.122 20 0 18.878 0 17.5V2.5C0 1.122 1.122 0 2.5 0H10.5C10.714 0 10.904 0.136 10.973 0.338L17.473 19.338C17.525 19.49 17.5 19.659 17.407 19.79C17.313 19.922 17.162 20 17 20ZM2.5 1C1.673 1 1 1.673 1 2.5V17.5C1 18.327 1.673 19 2.5 19H16.3L10.143 1H2.5Z" fill="black"/>
<path d="M21.5 24H13.5C13.292 24 13.105 23.871 13.032 23.676L11.532 19.676C11.435 19.417 11.566 19.129 11.824 19.032C12.083 18.936 12.371 19.066 12.468 19.324L13.847 23H21.5C22.327 23 23 22.327 23 21.5V6.5C23 5.673 22.327 5 21.5 5H12C11.724 5 11.5 4.776 11.5 4.5C11.5 4.224 11.724 4 12 4H21.5C22.878 4 24 5.122 24 6.5V21.5C24 22.878 22.878 24 21.5 24Z" fill="black"/>
<path d="M13.5 24C13.383 24 13.266 23.959 13.171 23.876C12.963 23.694 12.942 23.378 13.124 23.17L16.624 19.17C16.806 18.961 17.122 18.941 17.33 19.123C17.538 19.305 17.559 19.621 17.377 19.829L13.877 23.829C13.777 23.942 13.639 24 13.5 24Z" fill="black"/>
<path d="M9.50003 14C9.29403 14 9.10203 13.873 9.02903 13.668L7.00003 7.98699L4.97103 13.668C4.87803 13.928 4.59103 14.064 4.33203 13.971C4.07203 13.878 3.93603 13.592 4.02903 13.332L6.52903 6.33199C6.67103 5.93399 7.32903 5.93399 7.47003 6.33199L9.97003 13.332C10.063 13.592 9.92803 13.878 9.66703 13.971C9.61303 13.991 9.55603 14 9.50003 14Z" fill="black"/>
<path d="M8 11H6C5.724 11 5.5 10.776 5.5 10.5C5.5 10.224 5.724 10 6 10H8C8.276 10 8.5 10.224 8.5 10.5C8.5 10.776 8.276 11 8 11Z" fill="black"/>
<path d="M21.5 11H14.5C14.224 11 14 10.776 14 10.5C14 10.224 14.224 10 14.5 10H21.5C21.776 10 22 10.224 22 10.5C22 10.776 21.776 11 21.5 11Z" fill="black"/>
<path d="M17.5 11C17.224 11 17 10.776 17 10.5V9.5C17 9.224 17.224 9 17.5 9C17.776 9 18 9.224 18 9.5V10.5C18 10.776 17.776 11 17.5 11Z" fill="black"/>
<path d="M16 17C15.843 17 15.689 16.927 15.592 16.79C15.432 16.565 15.485 16.253 15.71 16.093C17.899 14.538 19.5 11.366 19.5 10.501C19.5 10.225 19.724 10.001 20 10.001C20.276 10.001 20.5 10.225 20.5 10.501C20.5 11.819 18.573 15.286 16.29 16.909C16.202 16.97 16.101 17 16 17Z" fill="black"/>
<path d="M19.9999 18C19.8789 18 19.7579 17.957 19.6629 17.869C19.2999 17.537 16.1049 14.586 15.5369 13.188C15.4329 12.932 15.5569 12.641 15.8119 12.537C16.0649 12.434 16.3589 12.556 16.4629 12.812C16.8719 13.819 19.3989 16.271 20.3379 17.131C20.5419 17.318 20.5549 17.633 20.3689 17.838C20.2699 17.945 20.1349 18 19.9999 18Z" fill="black"/>
</g>
<defs>
<clipPath id="clip0_28_412">
<rect width="24" height="24" fill="white"/>
</clipPath>
</defs>
</svg>
